<svg xmlns="http://www.w3.org/2000/svg" width="900" height="260" viewBox="0 0 900 260">
<rect width="900" height="260" fill="white"/>
<text x="46" y="24" font-size="14" font-family="sans-serif" fill="#222">current_w4_u16_t1 — ? workers, 16 users</text>
<text x="854" y="24" font-size="12" font-family="sans-serif" text-anchor="end" fill="#666">
start 5828 MB &#183; peak 5896 MB &#183; end 5837 MB &#183; growth +68 MB</text>
<line x1="46" y1="214.0" x2="854" y2="214.0" stroke="#e3e3e3" stroke-width="1"/>
<text x="38" y="218.0" font-size="11" text-anchor="end" fill="#666">5661</text>
<line x1="46" y1="172.0" x2="854" y2="172.0" stroke="#e3e3e3" stroke-width="1"/>
<text x="38" y="176.0" font-size="11" text-anchor="end" fill="#666">5720</text>
<line x1="46" y1="130.0" x2="854" y2="130.0" stroke="#e3e3e3" stroke-width="1"/>
<text x="38" y="134.0" font-size="11" text-anchor="end" fill="#666">5778</text>
<line x1="46" y1="88.0" x2="854" y2="88.0" stroke="#e3e3e3" stroke-width="1"/>
<text x="38" y="92.0" font-size="11" text-anchor="end" fill="#666">5837</text>
<line x1="46" y1="46.0" x2="854" y2="46.0" stroke="#e3e3e3" stroke-width="1"/>
<text x="38" y="50.0" font-size="11" text-anchor="end" fill="#666">5896</text>
<text x="46.0" y="232" font-size="11" text-anchor="middle" fill="#666">0s</text>
<text x="248.0" y="232" font-size="11" text-anchor="middle" fill="#666">78s</text>
<text x="450.0" y="232" font-size="11" text-anchor="middle" fill="#666">156s</text>
<text x="652.0" y="232" font-size="11" text-anchor="middle" fill="#666">234s</text>
<text x="854.0" y="232" font-size="11" text-anchor="middle" fill="#666">312s</text>
<polygon points="46.0,214 46.0,94.6 51.2,94.6 56.4,93.2 64.1,90.3 69.3,94.6 74.5,95.3 79.7,103.9 84.8,100.3 92.6,94.6 97.8,93.9 105.6,93.9 110.7,106.8 115.9,94.6 121.1,94.6 126.3,101.0 131.5,101.0 139.2,101.0 144.4,101.0 149.6,101.0 154.8,112.5 159.9,112.5 167.7,86.7 172.9,113.9 178.1,93.9 185.8,113.9 191.0,113.9 196.2,113.2 201.4,114.6 206.6,96.0 214.3,96.0 219.5,99.6 224.7,98.9 229.9,110.3 235.1,97.5 242.8,76.7 248.0,74.6 253.2,74.6 258.4,74.6 263.5,58.9 271.3,79.6 276.5,79.6 281.7,78.2 286.8,143.9 292.0,110.3 299.8,101.0 305.0,100.3 310.2,95.3 315.3,92.5 320.5,82.5 328.3,88.2 333.5,83.9 338.6,83.2 343.8,84.6 351.6,74.6 356.8,214.0 361.9,156.1 367.1,149.7 374.9,122.5 380.1,118.2 385.3,118.2 390.4,118.2 395.6,105.3 403.4,101.8 408.6,96.8 413.7,95.3 418.9,75.3 426.7,72.5 431.9,72.5 437.1,72.5 442.2,72.5 447.4,113.2 452.6,74.6 460.4,68.9 465.5,66.7 470.7,78.9 475.9,78.2 483.7,78.2 488.8,68.9 494.0,46.0 499.2,66.7 507.0,66.7 512.2,56.7 517.3,71.0 522.5,71.0 527.7,58.2 535.5,58.2 540.6,178.3 545.8,128.9 551.0,126.1 558.8,136.1 563.9,131.8 569.1,125.4 574.3,125.4 579.5,123.9 587.3,111.8 592.4,91.8 597.6,118.9 602.8,118.9 610.6,125.4 615.7,118.2 620.9,107.5 626.1,107.5 631.3,98.2 639.1,81.7 644.2,74.6 649.4,71.0 654.6,70.3 662.4,76.7 667.5,76.7 672.7,66.0 677.9,78.9 685.7,55.3 690.8,79.6 696.0,79.6 701.2,79.6 706.4,72.5 711.6,72.5 719.3,72.5 724.5,64.6 729.7,82.5 734.9,88.9 740.1,85.3 747.8,82.5 753.0,82.5 758.2,82.5 763.4,86.0 768.5,73.2 776.3,80.3 781.5,76.0 786.7,76.0 791.8,75.3 799.6,56.7 804.8,70.3 810.0,70.3 815.2,68.9 820.3,68.9 828.1,77.5 833.3,77.5 838.5,88.9 843.6,88.9 848.8,88.9 854.0,88.2 854.0,214" fill="#4a90d9" fill-opacity="0.12"/>
<polyline points="46.0,94.6 51.2,94.6 56.4,93.2 64.1,90.3 69.3,94.6 74.5,95.3 79.7,103.9 84.8,100.3 92.6,94.6 97.8,93.9 105.6,93.9 110.7,106.8 115.9,94.6 121.1,94.6 126.3,101.0 131.5,101.0 139.2,101.0 144.4,101.0 149.6,101.0 154.8,112.5 159.9,112.5 167.7,86.7 172.9,113.9 178.1,93.9 185.8,113.9 191.0,113.9 196.2,113.2 201.4,114.6 206.6,96.0 214.3,96.0 219.5,99.6 224.7,98.9 229.9,110.3 235.1,97.5 242.8,76.7 248.0,74.6 253.2,74.6 258.4,74.6 263.5,58.9 271.3,79.6 276.5,79.6 281.7,78.2 286.8,143.9 292.0,110.3 299.8,101.0 305.0,100.3 310.2,95.3 315.3,92.5 320.5,82.5 328.3,88.2 333.5,83.9 338.6,83.2 343.8,84.6 351.6,74.6 356.8,214.0 361.9,156.1 367.1,149.7 374.9,122.5 380.1,118.2 385.3,118.2 390.4,118.2 395.6,105.3 403.4,101.8 408.6,96.8 413.7,95.3 418.9,75.3 426.7,72.5 431.9,72.5 437.1,72.5 442.2,72.5 447.4,113.2 452.6,74.6 460.4,68.9 465.5,66.7 470.7,78.9 475.9,78.2 483.7,78.2 488.8,68.9 494.0,46.0 499.2,66.7 507.0,66.7 512.2,56.7 517.3,71.0 522.5,71.0 527.7,58.2 535.5,58.2 540.6,178.3 545.8,128.9 551.0,126.1 558.8,136.1 563.9,131.8 569.1,125.4 574.3,125.4 579.5,123.9 587.3,111.8 592.4,91.8 597.6,118.9 602.8,118.9 610.6,125.4 615.7,118.2 620.9,107.5 626.1,107.5 631.3,98.2 639.1,81.7 644.2,74.6 649.4,71.0 654.6,70.3 662.4,76.7 667.5,76.7 672.7,66.0 677.9,78.9 685.7,55.3 690.8,79.6 696.0,79.6 701.2,79.6 706.4,72.5 711.6,72.5 719.3,72.5 724.5,64.6 729.7,82.5 734.9,88.9 740.1,85.3 747.8,82.5 753.0,82.5 758.2,82.5 763.4,86.0 768.5,73.2 776.3,80.3 781.5,76.0 786.7,76.0 791.8,75.3 799.6,56.7 804.8,70.3 810.0,70.3 815.2,68.9 820.3,68.9 828.1,77.5 833.3,77.5 838.5,88.9 843.6,88.9 848.8,88.9 854.0,88.2" fill="none" stroke="#4a90d9" stroke-width="2"/>
<text x="46" y="252" font-size="11" font-family="sans-serif" fill="#666">seconds from load start &#183; MB RSS</text>
</svg>
